ISO-10303-21;
HEADER;
/* Generated by software containing ST-Developer
 * from STEP Tools, Inc. (www.steptools.com) 
 */
/* OPTION: using custom renumber hook */

FILE_DESCRIPTION(
/* description */ ('STEP AP242 Edition 2',
'CAx-IF Rec.Pracs.---Representation and Presentation of Product Manufa
cturing Information (PMI)---4.0---2014-10-13',
'CAx-IF Rec.Pracs.---3D Tessellated Geometry---0.4---2014-09-14','2;1',
'CAx-IF Rec.Pracs.---User Defined Attributes---1.5---2016-08-15'),
/* implementation_level */ '2;1');

FILE_NAME(
/* name */ 'Part Studio 2 - Top Plate',
/* time_stamp */ '2026-10-04T00:34:49Z',
/* author */ (''),
/* organization */ (''),
/* preprocessor_version */ 'ST-DEVELOPER v20',
/* originating_system */ 'ONSHAPE BY PTC INC, 1.221',
/* authorisation */ '  ');

FILE_SCHEMA (('AP242_MANAGED_MODEL_BASED_3D_ENGINEERING_MIM_LF { 1 0 10303 442 3 1 4 }'));
ENDSEC;

DATA;
#10=SHAPE_REPRESENTATION_RELATIONSHIP('','',#283,#11);
#11=ADVANCED_BREP_SHAPE_REPRESENTATION('',(#281),#449);
#12=CIRCLE('',#292,0.0016);
#13=CIRCLE('',#293,0.0016);
#14=CIRCLE('',#295,0.0016);
#15=CIRCLE('',#296,0.0016);
#16=CIRCLE('',#298,0.0016);
#17=CIRCLE('',#299,0.0016);
#18=CIRCLE('',#303,0.0016);
#19=CIRCLE('',#304,0.0016);
#20=CYLINDRICAL_SURFACE('',#291,0.0016);
#21=CYLINDRICAL_SURFACE('',#294,0.0016);
#22=CYLINDRICAL_SURFACE('',#297,0.0016);
#23=CYLINDRICAL_SURFACE('',#302,0.0016);
#24=ORIENTED_EDGE('',*,*,#88,.F.);
#25=ORIENTED_EDGE('',*,*,#89,.F.);
#26=ORIENTED_EDGE('',*,*,#90,.T.);
#27=ORIENTED_EDGE('',*,*,#91,.T.);
#28=ORIENTED_EDGE('',*,*,#92,.T.);
#29=ORIENTED_EDGE('',*,*,#93,.F.);
#30=ORIENTED_EDGE('',*,*,#94,.F.);
#31=ORIENTED_EDGE('',*,*,#89,.T.);
#32=ORIENTED_EDGE('',*,*,#95,.T.);
#33=ORIENTED_EDGE('',*,*,#96,.F.);
#34=ORIENTED_EDGE('',*,*,#97,.F.);
#35=ORIENTED_EDGE('',*,*,#93,.T.);
#36=ORIENTED_EDGE('',*,*,#98,.F.);
#37=ORIENTED_EDGE('',*,*,#99,.F.);
#38=ORIENTED_EDGE('',*,*,#100,.T.);
#39=ORIENTED_EDGE('',*,*,#101,.T.);
#40=ORIENTED_EDGE('',*,*,#102,.T.);
#41=ORIENTED_EDGE('',*,*,#103,.F.);
#42=ORIENTED_EDGE('',*,*,#104,.F.);
#43=ORIENTED_EDGE('',*,*,#99,.T.);
#44=ORIENTED_EDGE('',*,*,#105,.T.);
#45=ORIENTED_EDGE('',*,*,#106,.F.);
#46=ORIENTED_EDGE('',*,*,#107,.F.);
#47=ORIENTED_EDGE('',*,*,#103,.T.);
#48=ORIENTED_EDGE('',*,*,#108,.T.);
#49=ORIENTED_EDGE('',*,*,#109,.F.);
#50=ORIENTED_EDGE('',*,*,#110,.T.);
#51=ORIENTED_EDGE('',*,*,#111,.F.);
#52=ORIENTED_EDGE('',*,*,#112,.T.);
#53=ORIENTED_EDGE('',*,*,#113,.F.);
#54=ORIENTED_EDGE('',*,*,#114,.F.);
#55=ORIENTED_EDGE('',*,*,#91,.F.);
#56=ORIENTED_EDGE('',*,*,#115,.T.);
#57=ORIENTED_EDGE('',*,*,#96,.T.);
#58=ORIENTED_EDGE('',*,*,#116,.F.);
#59=ORIENTED_EDGE('',*,*,#101,.F.);
#60=ORIENTED_EDGE('',*,*,#117,.T.);
#61=ORIENTED_EDGE('',*,*,#106,.T.);
#62=ORIENTED_EDGE('',*,*,#118,.T.);
#63=ORIENTED_EDGE('',*,*,#119,.F.);
#64=ORIENTED_EDGE('',*,*,#100,.F.);
#65=ORIENTED_EDGE('',*,*,#104,.T.);
#66=ORIENTED_EDGE('',*,*,#107,.T.);
#67=ORIENTED_EDGE('',*,*,#117,.F.);
#68=ORIENTED_EDGE('',*,*,#90,.F.);
#69=ORIENTED_EDGE('',*,*,#94,.T.);
#70=ORIENTED_EDGE('',*,*,#97,.T.);
#71=ORIENTED_EDGE('',*,*,#115,.F.);
#72=ORIENTED_EDGE('',*,*,#112,.F.);
#73=ORIENTED_EDGE('',*,*,#110,.F.);
#74=ORIENTED_EDGE('',*,*,#108,.F.);
#75=ORIENTED_EDGE('',*,*,#118,.F.);
#76=ORIENTED_EDGE('',*,*,#98,.T.);
#77=ORIENTED_EDGE('',*,*,#116,.T.);
#78=ORIENTED_EDGE('',*,*,#105,.F.);
#79=ORIENTED_EDGE('',*,*,#102,.F.);
#80=ORIENTED_EDGE('',*,*,#88,.T.);
#81=ORIENTED_EDGE('',*,*,#114,.T.);
#82=ORIENTED_EDGE('',*,*,#95,.F.);
#83=ORIENTED_EDGE('',*,*,#92,.F.);
#84=ORIENTED_EDGE('',*,*,#113,.T.);
#85=ORIENTED_EDGE('',*,*,#111,.T.);
#86=ORIENTED_EDGE('',*,*,#109,.T.);
#87=ORIENTED_EDGE('',*,*,#119,.T.);
#88=EDGE_CURVE('',#120,#121,#144,.T.);
#89=EDGE_CURVE('',#122,#120,#145,.T.);
#90=EDGE_CURVE('',#122,#123,#146,.T.);
#91=EDGE_CURVE('',#123,#121,#147,.T.);
#92=EDGE_CURVE('',#120,#124,#148,.T.);
#93=EDGE_CURVE('',#125,#124,#149,.T.);
#94=EDGE_CURVE('',#122,#125,#150,.T.);
#95=EDGE_CURVE('',#124,#126,#151,.T.);
#96=EDGE_CURVE('',#127,#126,#152,.T.);
#97=EDGE_CURVE('',#125,#127,#153,.T.);
#98=EDGE_CURVE('',#128,#129,#154,.T.);
#99=EDGE_CURVE('',#130,#128,#155,.T.);
#100=EDGE_CURVE('',#130,#131,#156,.T.);
#101=EDGE_CURVE('',#131,#129,#157,.T.);
#102=EDGE_CURVE('',#128,#132,#158,.T.);
#103=EDGE_CURVE('',#133,#132,#159,.T.);
#104=EDGE_CURVE('',#130,#133,#160,.T.);
#105=EDGE_CURVE('',#132,#134,#161,.T.);
#106=EDGE_CURVE('',#135,#134,#162,.T.);
#107=EDGE_CURVE('',#133,#135,#163,.T.);
#108=EDGE_CURVE('',#136,#136,#12,.T.);
#109=EDGE_CURVE('',#137,#137,#13,.T.);
#110=EDGE_CURVE('',#138,#138,#14,.T.);
#111=EDGE_CURVE('',#139,#139,#15,.T.);
#112=EDGE_CURVE('',#140,#140,#16,.T.);
#113=EDGE_CURVE('',#141,#141,#17,.T.);
#114=EDGE_CURVE('',#121,#126,#164,.T.);
#115=EDGE_CURVE('',#123,#127,#165,.T.);
#116=EDGE_CURVE('',#129,#134,#166,.T.);
#117=EDGE_CURVE('',#131,#135,#167,.T.);
#118=EDGE_CURVE('',#142,#142,#18,.T.);
#119=EDGE_CURVE('',#143,#143,#19,.T.);
#120=VERTEX_POINT('',#380);
#121=VERTEX_POINT('',#381);
#122=VERTEX_POINT('',#383);
#123=VERTEX_POINT('',#385);
#124=VERTEX_POINT('',#389);
#125=VERTEX_POINT('',#391);
#126=VERTEX_POINT('',#395);
#127=VERTEX_POINT('',#397);
#128=VERTEX_POINT('',#401);
#129=VERTEX_POINT('',#402);
#130=VERTEX_POINT('',#404);
#131=VERTEX_POINT('',#406);
#132=VERTEX_POINT('',#410);
#133=VERTEX_POINT('',#412);
#134=VERTEX_POINT('',#416);
#135=VERTEX_POINT('',#418);
#136=VERTEX_POINT('',#422);
#137=VERTEX_POINT('',#424);
#138=VERTEX_POINT('',#427);
#139=VERTEX_POINT('',#429);
#140=VERTEX_POINT('',#432);
#141=VERTEX_POINT('',#434);
#142=VERTEX_POINT('',#443);
#143=VERTEX_POINT('',#445);
#144=LINE('',#379,#168);
#145=LINE('',#382,#169);
#146=LINE('',#384,#170);
#147=LINE('',#386,#171);
#148=LINE('',#388,#172);
#149=LINE('',#390,#173);
#150=LINE('',#392,#174);
#151=LINE('',#394,#175);
#152=LINE('',#396,#176);
#153=LINE('',#398,#177);
#154=LINE('',#400,#178);
#155=LINE('',#403,#179);
#156=LINE('',#405,#180);
#157=LINE('',#407,#181);
#158=LINE('',#409,#182);
#159=LINE('',#411,#183);
#160=LINE('',#413,#184);
#161=LINE('',#415,#185);
#162=LINE('',#417,#186);
#163=LINE('',#419,#187);
#164=LINE('',#436,#188);
#165=LINE('',#437,#189);
#166=LINE('',#439,#190);
#167=LINE('',#440,#191);
#168=VECTOR('',#311,1.);
#169=VECTOR('',#312,1.);
#170=VECTOR('',#313,1.);
#171=VECTOR('',#314,1.);
#172=VECTOR('',#317,1.);
#173=VECTOR('',#318,1.);
#174=VECTOR('',#319,1.);
#175=VECTOR('',#322,1.);
#176=VECTOR('',#323,1.);
#177=VECTOR('',#324,1.);
#178=VECTOR('',#327,1.);
#179=VECTOR('',#328,1.);
#180=VECTOR('',#329,1.);
#181=VECTOR('',#330,1.);
#182=VECTOR('',#333,1.);
#183=VECTOR('',#334,1.);
#184=VECTOR('',#335,1.);
#185=VECTOR('',#338,1.);
#186=VECTOR('',#339,1.);
#187=VECTOR('',#340,1.);
#188=VECTOR('',#361,1.);
#189=VECTOR('',#362,1.);
#190=VECTOR('',#365,1.);
#191=VECTOR('',#366,1.);
#192=EDGE_LOOP('',(#24,#25,#26,#27));
#193=EDGE_LOOP('',(#28,#29,#30,#31));
#194=EDGE_LOOP('',(#32,#33,#34,#35));
#195=EDGE_LOOP('',(#36,#37,#38,#39));
#196=EDGE_LOOP('',(#40,#41,#42,#43));
#197=EDGE_LOOP('',(#44,#45,#46,#47));
#198=EDGE_LOOP('',(#48));
#199=EDGE_LOOP('',(#49));
#200=EDGE_LOOP('',(#50));
#201=EDGE_LOOP('',(#51));
#202=EDGE_LOOP('',(#52));
#203=EDGE_LOOP('',(#53));
#204=EDGE_LOOP('',(#54,#55,#56,#57));
#205=EDGE_LOOP('',(#58,#59,#60,#61));
#206=EDGE_LOOP('',(#62));
#207=EDGE_LOOP('',(#63));
#208=EDGE_LOOP('',(#64,#65,#66,#67));
#209=EDGE_LOOP('',(#68,#69,#70,#71));
#210=EDGE_LOOP('',(#72));
#211=EDGE_LOOP('',(#73));
#212=EDGE_LOOP('',(#74));
#213=EDGE_LOOP('',(#75));
#214=EDGE_LOOP('',(#76,#77,#78,#79));
#215=EDGE_LOOP('',(#80,#81,#82,#83));
#216=EDGE_LOOP('',(#84));
#217=EDGE_LOOP('',(#85));
#218=EDGE_LOOP('',(#86));
#219=EDGE_LOOP('',(#87));
#220=FACE_BOUND('',#192,.T.);
#221=FACE_BOUND('',#193,.T.);
#222=FACE_BOUND('',#194,.T.);
#223=FACE_BOUND('',#195,.T.);
#224=FACE_BOUND('',#196,.T.);
#225=FACE_BOUND('',#197,.T.);
#226=FACE_BOUND('',#198,.T.);
#227=FACE_BOUND('',#199,.T.);
#228=FACE_BOUND('',#200,.T.);
#229=FACE_BOUND('',#201,.T.);
#230=FACE_BOUND('',#202,.T.);
#231=FACE_BOUND('',#203,.T.);
#232=FACE_BOUND('',#204,.T.);
#233=FACE_BOUND('',#205,.T.);
#234=FACE_BOUND('',#206,.T.);
#235=FACE_BOUND('',#207,.T.);
#236=FACE_BOUND('',#208,.T.);
#237=FACE_BOUND('',#209,.T.);
#238=FACE_BOUND('',#210,.T.);
#239=FACE_BOUND('',#211,.T.);
#240=FACE_BOUND('',#212,.T.);
#241=FACE_BOUND('',#213,.T.);
#242=FACE_BOUND('',#214,.T.);
#243=FACE_BOUND('',#215,.T.);
#244=FACE_BOUND('',#216,.T.);
#245=FACE_BOUND('',#217,.T.);
#246=FACE_BOUND('',#218,.T.);
#247=FACE_BOUND('',#219,.T.);
#248=PLANE('',#285);
#249=PLANE('',#286);
#250=PLANE('',#287);
#251=PLANE('',#288);
#252=PLANE('',#289);
#253=PLANE('',#290);
#254=PLANE('',#300);
#255=PLANE('',#301);
#256=PLANE('',#305);
#257=PLANE('',#306);
#258=ADVANCED_FACE('',(#220),#248,.T.);
#259=ADVANCED_FACE('',(#221),#249,.F.);
#260=ADVANCED_FACE('',(#222),#250,.F.);
#261=ADVANCED_FACE('',(#223),#251,.T.);
#262=ADVANCED_FACE('',(#224),#252,.F.);
#263=ADVANCED_FACE('',(#225),#253,.F.);
#264=ADVANCED_FACE('',(#226,#227),#20,.F.);
#265=ADVANCED_FACE('',(#228,#229),#21,.F.);
#266=ADVANCED_FACE('',(#230,#231),#22,.F.);
#267=ADVANCED_FACE('',(#232),#254,.T.);
#268=ADVANCED_FACE('',(#233),#255,.T.);
#269=ADVANCED_FACE('',(#234,#235),#23,.F.);
#270=ADVANCED_FACE('',(#236,#237,#238,#239,#240,#241),#256,.T.);
#271=ADVANCED_FACE('',(#242,#243,#244,#245,#246,#247),#257,.F.);
#272=CLOSED_SHELL('',(#258,#259,#260,#261,#262,#263,#264,#265,#266,#267,
#268,#269,#270,#271));
#273=STYLED_ITEM('',(#274),#281);
#274=PRESENTATION_STYLE_ASSIGNMENT((#275));
#275=SURFACE_STYLE_USAGE(.BOTH.,#276);
#276=SURFACE_SIDE_STYLE('',(#277));
#277=SURFACE_STYLE_FILL_AREA(#278);
#278=FILL_AREA_STYLE('',(#279));
#279=FILL_AREA_STYLE_COLOUR('',#280);
#280=COLOUR_RGB('',0.913725490196078,0.647058823529412,0.329411764705883);
#281=MANIFOLD_SOLID_BREP('Top Plate',#272);
#282=SHAPE_DEFINITION_REPRESENTATION(#454,#283);
#283=SHAPE_REPRESENTATION('Top Plate',(#284),#449);
#284=AXIS2_PLACEMENT_3D('',#377,#307,#308);
#285=AXIS2_PLACEMENT_3D('',#378,#309,#310);
#286=AXIS2_PLACEMENT_3D('',#387,#315,#316);
#287=AXIS2_PLACEMENT_3D('',#393,#320,#321);
#288=AXIS2_PLACEMENT_3D('',#399,#325,#326);
#289=AXIS2_PLACEMENT_3D('',#408,#331,#332);
#290=AXIS2_PLACEMENT_3D('',#414,#336,#337);
#291=AXIS2_PLACEMENT_3D('',#420,#341,#342);
#292=AXIS2_PLACEMENT_3D('',#421,#343,#344);
#293=AXIS2_PLACEMENT_3D('',#423,#345,#346);
#294=AXIS2_PLACEMENT_3D('',#425,#347,#348);
#295=AXIS2_PLACEMENT_3D('',#426,#349,#350);
#296=AXIS2_PLACEMENT_3D('',#428,#351,#352);
#297=AXIS2_PLACEMENT_3D('',#430,#353,#354);
#298=AXIS2_PLACEMENT_3D('',#431,#355,#356);
#299=AXIS2_PLACEMENT_3D('',#433,#357,#358);
#300=AXIS2_PLACEMENT_3D('',#435,#359,#360);
#301=AXIS2_PLACEMENT_3D('',#438,#363,#364);
#302=AXIS2_PLACEMENT_3D('',#441,#367,#368);
#303=AXIS2_PLACEMENT_3D('',#442,#369,#370);
#304=AXIS2_PLACEMENT_3D('',#444,#371,#372);
#305=AXIS2_PLACEMENT_3D('',#446,#373,#374);
#306=AXIS2_PLACEMENT_3D('',#447,#375,#376);
#307=DIRECTION('',(0.,0.,1.));
#308=DIRECTION('',(1.,0.,0.));
#309=DIRECTION('',(1.,0.,6.07913107976854E-16));
#310=DIRECTION('',(6.07913107976854E-16,0.,-1.));
#311=DIRECTION('',(-6.07913107976854E-16,0.,1.));
#312=DIRECTION('',(0.,-1.,0.));
#313=DIRECTION('',(-6.07913107976854E-16,0.,1.));
#314=DIRECTION('',(0.,-1.,0.));
#315=DIRECTION('',(7.0805039835788E-16,0.,-1.));
#316=DIRECTION('',(-1.,0.,-7.0805039835788E-16));
#317=DIRECTION('',(1.,0.,7.0805039835788E-16));
#318=DIRECTION('',(0.,-1.,0.));
#319=DIRECTION('',(1.,0.,7.0805039835788E-16));
#320=DIRECTION('',(1.,0.,6.94757837687833E-16));
#321=DIRECTION('',(6.94757837687833E-16,0.,-1.));
#322=DIRECTION('',(-6.94757837687833E-16,0.,1.));
#323=DIRECTION('',(0.,-1.,0.));
#324=DIRECTION('',(-6.94757837687833E-16,0.,1.));
#325=DIRECTION('',(6.18944940936218E-16,0.,-1.));
#326=DIRECTION('',(-1.,0.,-6.18944940936218E-16));
#327=DIRECTION('',(1.,0.,6.18944940936218E-16));
#328=DIRECTION('',(0.,-1.,0.));
#329=DIRECTION('',(1.,0.,6.18944940936218E-16));
#330=DIRECTION('',(0.,-1.,0.));
#331=DIRECTION('',(1.,0.,7.38741445652124E-16));
#332=DIRECTION('',(7.38741445652124E-16,0.,-1.));
#333=DIRECTION('',(-7.38741445652124E-16,0.,1.));
#334=DIRECTION('',(0.,-1.,0.));
#335=DIRECTION('',(-7.38741445652124E-16,0.,1.));
#336=DIRECTION('',(0.,0.,-1.));
#337=DIRECTION('',(0.,1.,0.));
#338=DIRECTION('',(1.,0.,0.));
#339=DIRECTION('',(0.,-1.,0.));
#340=DIRECTION('',(1.,0.,0.));
#341=DIRECTION('',(0.,-1.,0.));
#342=DIRECTION('',(-1.,0.,0.));
#343=DIRECTION('',(0.,1.,0.));
#344=DIRECTION('',(1.,0.,0.));
#345=DIRECTION('',(0.,1.,0.));
#346=DIRECTION('',(1.,0.,0.));
#347=DIRECTION('',(0.,-1.,0.));
#348=DIRECTION('',(-1.,0.,0.));
#349=DIRECTION('',(0.,1.,0.));
#350=DIRECTION('',(1.,0.,0.));
#351=DIRECTION('',(0.,1.,0.));
#352=DIRECTION('',(1.,0.,0.));
#353=DIRECTION('',(0.,-1.,0.));
#354=DIRECTION('',(-1.,0.,0.));
#355=DIRECTION('',(0.,1.,0.));
#356=DIRECTION('',(1.,0.,0.));
#357=DIRECTION('',(0.,1.,0.));
#358=DIRECTION('',(1.,0.,0.));
#359=DIRECTION('',(7.0805039835788E-16,0.,-1.));
#360=DIRECTION('',(-1.,0.,-7.0805039835788E-16));
#361=DIRECTION('',(1.,0.,7.0805039835788E-16));
#362=DIRECTION('',(1.,0.,7.0805039835788E-16));
#363=DIRECTION('',(1.,0.,0.));
#364=DIRECTION('',(0.,-1.,0.));
#365=DIRECTION('',(0.,0.,1.));
#366=DIRECTION('',(0.,0.,1.));
#367=DIRECTION('',(0.,-1.,0.));
#368=DIRECTION('',(-1.,0.,0.));
#369=DIRECTION('',(0.,1.,0.));
#370=DIRECTION('',(1.,0.,0.));
#371=DIRECTION('',(0.,1.,0.));
#372=DIRECTION('',(1.,0.,0.));
#373=DIRECTION('',(0.,1.,0.));
#374=DIRECTION('',(1.,0.,0.));
#375=DIRECTION('',(0.,1.,0.));
#376=DIRECTION('',(1.,0.,0.));
#377=CARTESIAN_POINT('',(0.,0.,0.));
#378=CARTESIAN_POINT('',(0.0541544881314208,0.048,0.0504473472660582));
#379=CARTESIAN_POINT('',(0.0541544881314208,0.045,0.0504473472660582));
#380=CARTESIAN_POINT('',(0.0541544881314208,0.045,0.0104973472660582));
#381=CARTESIAN_POINT('',(0.0541544881314208,0.045,0.0903973472660582));
#382=CARTESIAN_POINT('',(0.0541544881314208,0.048,0.0104973472660582));
#383=CARTESIAN_POINT('',(0.0541544881314208,0.048,0.0104973472660582));
#384=CARTESIAN_POINT('',(0.0541544881314208,0.048,0.0504473472660582));
#385=CARTESIAN_POINT('',(0.0541544881314208,0.048,0.0903973472660582));
#386=CARTESIAN_POINT('',(0.0541544881314208,0.048,0.0903973472660582));
#387=CARTESIAN_POINT('',(0.0639544881314209,0.048,0.0104973472660582));
#388=CARTESIAN_POINT('',(0.0639544881314209,0.045,0.0104973472660582));
#389=CARTESIAN_POINT('',(0.0737544881314209,0.045,0.0104973472660582));
#390=CARTESIAN_POINT('',(0.0737544881314209,0.048,0.0104973472660582));
#391=CARTESIAN_POINT('',(0.0737544881314209,0.048,0.0104973472660582));
#392=CARTESIAN_POINT('',(0.0639544881314209,0.048,0.0104973472660582));
#393=CARTESIAN_POINT('',(0.0737544881314208,0.048,0.0504473472660582));
#394=CARTESIAN_POINT('',(0.0737544881314208,0.045,0.0504473472660582));
#395=CARTESIAN_POINT('',(0.0737544881314208,0.045,0.0903973472660582));
#396=CARTESIAN_POINT('',(0.0737544881314208,0.048,0.0903973472660582));
#397=CARTESIAN_POINT('',(0.0737544881314208,0.048,0.0903973472660582));
#398=CARTESIAN_POINT('',(0.0737544881314208,0.048,0.0504473472660582));
#399=CARTESIAN_POINT('',(0.0569321245298024,0.048,-0.0051597393481148));
#400=CARTESIAN_POINT('',(0.0569321245298024,0.045,-0.0051597393481148));
#401=CARTESIAN_POINT('',(0.0106874015172479,0.045,-0.00515973934811483));
#402=CARTESIAN_POINT('',(0.103176847542357,0.045,-0.00515973934811478));
#403=CARTESIAN_POINT('',(0.0106874015172479,0.048,-0.00515973934811483));
#404=CARTESIAN_POINT('',(0.0106874015172479,0.048,-0.00515973934811483));
#405=CARTESIAN_POINT('',(0.0569321245298024,0.048,-0.0051597393481148));
#406=CARTESIAN_POINT('',(0.103176847542357,0.048,-0.00515973934811478));
#407=CARTESIAN_POINT('',(0.103176847542357,0.048,-0.00515973934811478));
#408=CARTESIAN_POINT('',(0.0106874015172478,0.048,0.0476750899946782));
#409=CARTESIAN_POINT('',(0.0106874015172478,0.045,0.0476750899946782));
#410=CARTESIAN_POINT('',(0.0106874015172478,0.045,0.100509919337471));
#411=CARTESIAN_POINT('',(0.0106874015172478,0.048,0.100509919337471));
#412=CARTESIAN_POINT('',(0.0106874015172478,0.048,0.100509919337471));
#413=CARTESIAN_POINT('',(0.0106874015172478,0.048,0.0476750899946782));
#414=CARTESIAN_POINT('',(0.0569321245298023,0.048,0.100509919337471));
#415=CARTESIAN_POINT('',(0.0569321245298023,0.045,0.100509919337471));
#416=CARTESIAN_POINT('',(0.103176847542357,0.045,0.100509919337471));
#417=CARTESIAN_POINT('',(0.103176847542357,0.048,0.100509919337471));
#418=CARTESIAN_POINT('',(0.103176847542357,0.048,0.100509919337471));
#419=CARTESIAN_POINT('',(0.0569321245298023,0.048,0.100509919337471));
#420=CARTESIAN_POINT('',(0.0156874015172479,0.048,-0.00165973934811477));
#421=CARTESIAN_POINT('',(0.0156874015172479,0.048,-0.00165973934811477));
#422=CARTESIAN_POINT('',(0.0172874015172479,0.048,-0.00165973934811477));
#423=CARTESIAN_POINT('',(0.0156874015172479,0.045,-0.00165973934811477));
#424=CARTESIAN_POINT('',(0.0172874015172479,0.045,-0.00165973934811477));
#425=CARTESIAN_POINT('',(0.0981768475423569,0.048,-0.00165973934811478));
#426=CARTESIAN_POINT('',(0.0981768475423569,0.048,-0.00165973934811478));
#427=CARTESIAN_POINT('',(0.0997768475423569,0.048,-0.00165973934811478));
#428=CARTESIAN_POINT('',(0.0981768475423569,0.045,-0.00165973934811478));
#429=CARTESIAN_POINT('',(0.0997768475423569,0.045,-0.00165973934811478));
#430=CARTESIAN_POINT('',(0.0981768475423569,0.048,0.0970099193374712));
#431=CARTESIAN_POINT('',(0.0981768475423569,0.048,0.0970099193374712));
#432=CARTESIAN_POINT('',(0.0997768475423569,0.048,0.0970099193374712));
#433=CARTESIAN_POINT('',(0.0981768475423569,0.045,0.0970099193374712));
#434=CARTESIAN_POINT('',(0.0997768475423569,0.045,0.0970099193374712));
#435=CARTESIAN_POINT('',(0.0639544881314208,0.048,0.0903973472660582));
#436=CARTESIAN_POINT('',(0.0639544881314208,0.045,0.0903973472660582));
#437=CARTESIAN_POINT('',(0.0639544881314208,0.048,0.0903973472660582));
#438=CARTESIAN_POINT('',(0.103176847542357,0.048,0.0476750899946782));
#439=CARTESIAN_POINT('',(0.103176847542357,0.045,0.0476750899946782));
#440=CARTESIAN_POINT('',(0.103176847542357,0.048,0.0476750899946782));
#441=CARTESIAN_POINT('',(0.0156874015172479,0.048,0.0970099193374712));
#442=CARTESIAN_POINT('',(0.0156874015172479,0.048,0.0970099193374712));
#443=CARTESIAN_POINT('',(0.0172874015172479,0.048,0.0970099193374712));
#444=CARTESIAN_POINT('',(0.0156874015172479,0.045,0.0970099193374712));
#445=CARTESIAN_POINT('',(0.0172874015172479,0.045,0.0970099193374712));
#446=CARTESIAN_POINT('',(0.0569321245298023,0.048,0.0476750899946782));
#447=CARTESIAN_POINT('',(0.0569321245298023,0.045,0.0476750899946782));
#448=MECHANICAL_DESIGN_GEOMETRIC_PRESENTATION_REPRESENTATION('',(#273),
#449);
#449=(
GEOMETRIC_REPRESENTATION_CONTEXT(3)
GLOBAL_UNCERTAINTY_ASSIGNED_CONTEXT((#450))
GLOBAL_UNIT_ASSIGNED_CONTEXT((#453,#452,#451))
REPRESENTATION_CONTEXT('Top Plate','TOP_LEVEL_ASSEMBLY_PART')
);
#450=UNCERTAINTY_MEASURE_WITH_UNIT(LENGTH_MEASURE(1.E-8),#453,
'DISTANCE_ACCURACY_VALUE','Maximum Tolerance applied to model');
#451=(
NAMED_UNIT(*)
SI_UNIT($,.STERADIAN.)
SOLID_ANGLE_UNIT()
);
#452=(
NAMED_UNIT(*)
PLANE_ANGLE_UNIT()
SI_UNIT($,.RADIAN.)
);
#453=(
LENGTH_UNIT()
NAMED_UNIT(*)
SI_UNIT($,.METRE.)
);
#454=PRODUCT_DEFINITION_SHAPE('','',#455);
#455=PRODUCT_DEFINITION('','',#457,#456);
#456=PRODUCT_DEFINITION_CONTEXT('',#463,'design');
#457=PRODUCT_DEFINITION_FORMATION_WITH_SPECIFIED_SOURCE('','',#459,
 .NOT_KNOWN.);
#458=PRODUCT_RELATED_PRODUCT_CATEGORY('','',(#459));
#459=PRODUCT('Top Plate','Top Plate','Top Plate',(#461));
#460=PRODUCT_CATEGORY('','');
#461=PRODUCT_CONTEXT('',#463,'mechanical');
#462=APPLICATION_PROTOCOL_DEFINITION('international standard',
'ap242_managed_model_based_3d_engineering',2020,#463);
#463=APPLICATION_CONTEXT('managed model based 3d engineering');
ENDSEC;
END-ISO-10303-21;
